<?xml version="1.0" standalone="no"?><!DOCTYPE svg PUBLIC "-//W3C//DTD SVG 1.1//EN" "http://www.w3.org/Graphics/SVG/1.1/DTD/svg11.dtd"><svg t="1653461118866" class="icon" viewBox="0 0 1027 1024" version="1.1" xmlns="http://www.w3.org/2000/svg" p-id="17304" xmlns:xlink="http://www.w3.org/1999/xlink" width="200.5859375" height="200"><defs><style type="text/css">@font-face { font-family: feedback-iconfont; src: url("//at.alicdn.com/t/font_1031158_u69w8yhxdu.woff2?t=1630033759944") format("woff2"), url("//at.alicdn.com/t/font_1031158_u69w8yhxdu.woff?t=1630033759944") format("woff"), url("//at.alicdn.com/t/font_1031158_u69w8yhxdu.ttf?t=1630033759944") format("truetype"); }
</style></defs><path d="M824.1712 856.7152 203.7744 856.7152c-18.4128 0-34.0448-13.1504-37.2592-31.2688l-89.856-510.2256c-2.7808-15.64 4.6704-31.4176 18.408-39.3088 13.88-7.8864 31.1216-6.28 43.2464 3.9456l189.3616 161.1664 154.592-239.192c13.8832-21.6192 49.5312-21.6192 63.4112 0l154.5856 239.0448 189.216-161.1664c12.1296-10.3728 29.52-11.8304 43.2528-3.9456 13.8816 7.8928 21.1824 23.6704 18.4064 39.3088l-89.7088 510.5152C858.216 843.5664 842.5776 856.7152 824.1712 856.7152L824.1712 856.7152zM235.4848 781.1712l556.9776 0 66.1936-375.6544-142.168 120.9792c-8.3312 7.0128-19.1456 10.0816-29.96 8.6256-10.8064-1.6128-20.3088-7.7472-26.2992-16.8032l-146.2592-226.3296-146.2544 226.3296c-5.9968 9.2032-15.4928 15.3408-26.3056 16.8032-10.9536 1.6032-21.7664-1.6128-29.952-8.6256l-142.1664-120.9792L235.4848 781.1712 235.4848 781.1712zM235.4848 781.1712M824.1712 978.8656 203.7744 978.8656c-20.896 0-37.8448-16.9472-37.8448-37.8432s16.9488-37.8432 37.8448-37.8432l620.3984 0c20.8944 0 37.8448 16.9472 37.8448 37.8432S845.0656 978.8656 824.1712 978.8656L824.1712 978.8656zM824.1712 978.8656M63.4688 203.3472m-60.5664 0a37.854 37.854 0 1 0 121.1328 0 37.854 37.854 0 1 0-121.1328 0ZM515.7584 106.9664m-60.5648 0a37.853 37.853 0 1 0 121.1296 0 37.853 37.853 0 1 0-121.1296 0ZM964.8208 199.8976m-60.5664 0a37.854 37.854 0 1 0 121.1328 0 37.854 37.854 0 1 0-121.1328 0Z" p-id="17305"></path></svg>