<?xml version="1.0" standalone="no"?><!DOCTYPE svg PUBLIC "-//W3C//DTD SVG 1.1//EN" "http://www.w3.org/Graphics/SVG/1.1/DTD/svg11.dtd"><svg t="1653461123173" class="icon" viewBox="0 0 1024 1024" version="1.1" xmlns="http://www.w3.org/2000/svg" p-id="17443" xmlns:xlink="http://www.w3.org/1999/xlink" width="200" height="200"><defs><style type="text/css">@font-face { font-family: feedback-iconfont; src: url("//at.alicdn.com/t/font_1031158_u69w8yhxdu.woff2?t=1630033759944") format("woff2"), url("//at.alicdn.com/t/font_1031158_u69w8yhxdu.woff?t=1630033759944") format("woff"), url("//at.alicdn.com/t/font_1031158_u69w8yhxdu.ttf?t=1630033759944") format("truetype"); }
</style></defs><path d="M379.747907 607.0324c-24.930809 0-45.076638-20.145829-45.076638-45.01217 0-24.870434 20.205181-44.956911 45.076638-44.956911 24.866341 0 45.075615 20.144806 45.075615 44.956911C424.823522 586.886571 404.677693 607.0324 379.747907 607.0324L379.747907 607.0324zM379.747907 426.973488c0-24.870434 20.145829-45.016263 45.075615-45.016263 24.866341 0 45.072545 20.145829 45.072545 45.016263 0 24.866341-20.205181 45.01217-45.072545 45.01217C399.953088 471.986681 379.747907 451.839829 379.747907 426.973488L379.747907 426.973488zM424.823522 291.923676c0-24.866341 20.145829-45.01217 45.072545-45.01217 24.871457 0 45.075615 20.145829 45.075615 45.01217 0 24.871457-20.204158 45.017286-45.075615 45.017286C445.028703 336.939939 424.823522 316.79411 424.823522 291.923676L424.823522 291.923676zM447.77935 624.01212l34.849716-56.372915 167.150928 45.075615-34.849716 56.374962L447.77935 624.01212 447.77935 624.01212zM762.52787 342.618265l-34.910091 56.372915-167.150928-45.070498 34.850739-56.378032L762.52787 342.618265 762.52787 342.618265zM515.331885 488.966401l34.850739-56.372915 167.268608 45.070498-34.909068 56.379055L515.331885 488.966401 515.331885 488.966401zM920.652214 359.481328 764.857938 755.054665l-79.447447 148.674111c-37.541011 54.822606-103.424534 67.497277-181.436282 43.76169L131.890866 787.095405c-52.187593-31.444153-71.676459-91.762937-67.61291-157.581991l4.246721-42.146912 104.615663 43.223431-0.237407 0.356111c0 0 120.696919 52.131311 161.767314 66.179258 46.86947 16.022928 157.765163 44.957935 157.765163 44.957935-14.645558 42.325991-12.137435 63.128783 0 90.088808 2.927679 6.517437 15.301498 18.653849 22.535249 22.539342 6.997368 8.606005 25.469068 18.111496 44.597731 20.74344 56.792471 8.008394 93.139284-79.393211 93.139284-79.393211l30.130228-59.421344L875.575576 269.506107 424.823522 156.937309 264.965697 561.298799c-4.484128 13.455453-17.098423 26.545586-31.68463 23.316032-37.84391-8.487302-21.045315-48.66128-15.722076-63.187111L382.439202 112.102171c16.797571-17.275455 34.43016-26.065655 53.380768-25.586748l439.696254 92.843548C999.921605 205.840088 958.4951 265.561261 920.652214 359.481328L920.652214 359.481328zM920.652214 359.481328" p-id="17444"></path></svg>