<?xml version="1.0" standalone="no"?><!DOCTYPE svg PUBLIC "-//W3C//DTD SVG 1.1//EN" "http://www.w3.org/Graphics/SVG/1.1/DTD/svg11.dtd"><svg t="1653461052255" class="icon" viewBox="0 0 1024 1024" version="1.1" xmlns="http://www.w3.org/2000/svg" p-id="16183" xmlns:xlink="http://www.w3.org/1999/xlink" width="200" height="200"><defs><style type="text/css">@font-face { font-family: feedback-iconfont; src: url("//at.alicdn.com/t/font_1031158_u69w8yhxdu.woff2?t=1630033759944") format("woff2"), url("//at.alicdn.com/t/font_1031158_u69w8yhxdu.woff?t=1630033759944") format("woff"), url("//at.alicdn.com/t/font_1031158_u69w8yhxdu.ttf?t=1630033759944") format("truetype"); }
</style></defs><path d="M544 256c-76.9 0-149.3 30-203.6 84.4-53.2 53.2-83 123.6-84.3 198.6l-54.3-54.3c-12.5-12.5-32.8-12.5-45.3 0-12.5 12.5-12.5 32.8 0 45.3l131.6 131.6 131.6-131.6c12.5-12.5 12.5-32.8 0-45.3-12.5-12.5-32.8-12.5-45.3 0L320.1 539c2.7-121.2 102.1-219 223.9-219 123.5 0 224 100.5 224 224 0 123.5-100.5 224-224 224-17.7 0-32 14.3-32 32s14.3 32 32 32c76.9 0 149.3-30 203.6-84.4C802 693.3 832 620.9 832 544s-30-149.3-84.4-203.6C693.3 286 620.9 256 544 256z" p-id="16184"></path><path d="M932 292.8 669.2 28.4C651.2 10.2 626.6 0 600.9 0L172 0C112.4 0 64 48.4 64 108l0 808c0 59.7 48.4 108 108 108l680 0c59.7 0 108-48.4 108-108L960 360.7C960 335.3 949.9 310.9 932 292.8zM896 916c0 24.3-19.7 44-44 44L172 960c-24.3 0-44-19.7-44-44L128 108c0-24.3 19.7-44 44-44l428.9 0c8.5 0 16.9 3.5 22.9 9.5l262.8 264.4c6.1 6.1 9.4 14.2 9.4 22.8L896 916z" p-id="16185"></path></svg>