<?xml version="1.0" standalone="no"?><!DOCTYPE svg PUBLIC "-//W3C//DTD SVG 1.1//EN" "http://www.w3.org/Graphics/SVG/1.1/DTD/svg11.dtd"><svg t="1653461114878" class="icon" viewBox="0 0 1024 1024" version="1.1" xmlns="http://www.w3.org/2000/svg" p-id="17159" xmlns:xlink="http://www.w3.org/1999/xlink" width="200" height="200"><defs><style type="text/css">@font-face { font-family: feedback-iconfont; src: url("//at.alicdn.com/t/font_1031158_u69w8yhxdu.woff2?t=1630033759944") format("woff2"), url("//at.alicdn.com/t/font_1031158_u69w8yhxdu.woff?t=1630033759944") format("woff"), url("//at.alicdn.com/t/font_1031158_u69w8yhxdu.ttf?t=1630033759944") format("truetype"); }
</style></defs><path d="M774.144 927.232h-63.488c-81.408 0-147.456-66.048-147.456-147.456v-188.416c0-10.752 8.192-19.456 17.92-20.48 3.072-1.536 6.144-2.56 9.728-2.56h183.296c81.408 0 147.456 66.048 147.456 147.456v63.488c0 81.92-66.048 147.968-147.456 147.968z m-170.496-317.44v169.984c0 58.88 47.616 106.496 106.496 106.496h63.488c58.88 0 106.496-47.616 106.496-106.496v-63.488c0-58.88-47.616-106.496-106.496-106.496h-169.984zM313.344 927.232H249.856c-81.408 0-147.456-66.048-147.456-147.456v-63.488c0-81.408 66.048-147.456 147.456-147.456h183.296c3.584 0 6.656 1.024 9.728 2.56 10.24 1.024 18.432 9.728 18.432 20.48v188.416c0 80.896-66.56 146.944-147.968 146.944z m-63.488-317.44c-58.88 0-106.496 47.616-106.496 106.496v63.488c0 58.88 47.616 106.496 106.496 106.496h63.488c58.88 0 106.496-47.616 106.496-106.496v-169.984H249.856zM433.152 465.408H249.856C168.448 465.408 102.4 399.36 102.4 317.952V254.464c0-81.408 66.048-147.456 147.456-147.456h63.488C394.752 107.008 460.8 173.056 460.8 254.464v188.416c0 10.752-8.192 19.456-17.92 20.48-2.56 1.536-6.144 2.048-9.728 2.048z m-183.296-317.44C190.976 147.968 143.36 195.584 143.36 254.464v63.488c0 58.88 47.616 106.496 106.496 106.496H419.84V254.464c0-58.88-47.616-106.496-106.496-106.496H249.856zM774.144 465.408h-183.296c-3.584 0-6.656-1.024-9.728-2.56-10.24-1.024-18.432-9.728-18.432-20.48V254.464c0-81.408 66.048-147.456 147.456-147.456h63.488c81.408 0 147.456 66.048 147.456 147.456v63.488c0.512 81.408-65.536 147.456-146.944 147.456z m-170.496-40.96h169.984c58.88 0 106.496-47.616 106.496-106.496V254.464c0-58.88-47.616-106.496-106.496-106.496h-63.488c-58.88 0-106.496 47.616-106.496 106.496v169.984z" fill="#4C4C4C" p-id="17160"></path></svg>